<mxfile host="app.diagrams.net" modified="2023-09-29T14:08:23.194Z" agent="Mozilla/5.0 (Windows NT 10.0; Win64; x64; rv:109.0) Gecko/20100101 Firefox/117.0" etag="AKIwJIQ2JGRtHXdkr2Fk" version="21.8.2" type="device">
  <diagram name="Page-1" id="ixRcAtqDT5KF_0Gd9KuM">
    <mxGraphModel dx="1647" dy="916" grid="1" gridSize="10" guides="1" tooltips="1" connect="1" arrows="1" fold="1" page="1" pageScale="1" pageWidth="850" pageHeight="1100" math="0" shadow="0">
      <root>
        <mxCell id="0" />
        <mxCell id="1" parent="0" />
        <mxCell id="AJ422COEmqKwi6WhXJyT-19" style="rounded=0;orthogonalLoop=1;jettySize=auto;html=1;exitX=0.5;exitY=0.5;exitDx=0;exitDy=0;exitPerimeter=0;entryX=0;entryY=0.5;entryDx=0;entryDy=0;" edge="1" parent="1" source="AJ422COEmqKwi6WhXJyT-1" target="AJ422COEmqKwi6WhXJyT-17">
          <mxGeometry relative="1" as="geometry" />
        </mxCell>
        <mxCell id="AJ422COEmqKwi6WhXJyT-25" style="rounded=0;orthogonalLoop=1;jettySize=auto;html=1;exitX=0.5;exitY=0.5;exitDx=0;exitDy=0;exitPerimeter=0;entryX=0;entryY=0.5;entryDx=0;entryDy=0;" edge="1" parent="1" source="AJ422COEmqKwi6WhXJyT-1" target="AJ422COEmqKwi6WhXJyT-5">
          <mxGeometry relative="1" as="geometry" />
        </mxCell>
        <mxCell id="AJ422COEmqKwi6WhXJyT-30" style="rounded=0;orthogonalLoop=1;jettySize=auto;html=1;exitX=0.5;exitY=0.5;exitDx=0;exitDy=0;exitPerimeter=0;entryX=0;entryY=1;entryDx=0;entryDy=0;" edge="1" parent="1" source="AJ422COEmqKwi6WhXJyT-1" target="AJ422COEmqKwi6WhXJyT-7">
          <mxGeometry relative="1" as="geometry" />
        </mxCell>
        <mxCell id="AJ422COEmqKwi6WhXJyT-31" style="rounded=0;orthogonalLoop=1;jettySize=auto;html=1;exitX=0.5;exitY=0.5;exitDx=0;exitDy=0;exitPerimeter=0;entryX=0;entryY=1;entryDx=0;entryDy=0;" edge="1" parent="1" source="AJ422COEmqKwi6WhXJyT-1" target="AJ422COEmqKwi6WhXJyT-6">
          <mxGeometry relative="1" as="geometry" />
        </mxCell>
        <mxCell id="AJ422COEmqKwi6WhXJyT-1" value="Admin" style="shape=umlActor;verticalLabelPosition=bottom;verticalAlign=top;html=1;outlineConnect=0;" vertex="1" parent="1">
          <mxGeometry x="100" y="460" width="30" height="60" as="geometry" />
        </mxCell>
        <mxCell id="AJ422COEmqKwi6WhXJyT-28" style="rounded=0;orthogonalLoop=1;jettySize=auto;html=1;exitX=0.5;exitY=0.5;exitDx=0;exitDy=0;exitPerimeter=0;entryX=0;entryY=0.5;entryDx=0;entryDy=0;" edge="1" parent="1" source="AJ422COEmqKwi6WhXJyT-2" target="AJ422COEmqKwi6WhXJyT-7">
          <mxGeometry relative="1" as="geometry" />
        </mxCell>
        <mxCell id="AJ422COEmqKwi6WhXJyT-29" style="rounded=0;orthogonalLoop=1;jettySize=auto;html=1;exitX=0.5;exitY=0.5;exitDx=0;exitDy=0;exitPerimeter=0;" edge="1" parent="1" source="AJ422COEmqKwi6WhXJyT-2" target="AJ422COEmqKwi6WhXJyT-6">
          <mxGeometry relative="1" as="geometry" />
        </mxCell>
        <mxCell id="AJ422COEmqKwi6WhXJyT-2" value="User" style="shape=umlActor;verticalLabelPosition=bottom;verticalAlign=top;html=1;outlineConnect=0;" vertex="1" parent="1">
          <mxGeometry x="100" y="270" width="30" height="60" as="geometry" />
        </mxCell>
        <mxCell id="AJ422COEmqKwi6WhXJyT-13" style="rounded=0;orthogonalLoop=1;jettySize=auto;html=1;exitX=0.5;exitY=0.5;exitDx=0;exitDy=0;exitPerimeter=0;entryX=0;entryY=0.5;entryDx=0;entryDy=0;" edge="1" parent="1" source="AJ422COEmqKwi6WhXJyT-3" target="AJ422COEmqKwi6WhXJyT-12">
          <mxGeometry relative="1" as="geometry">
            <mxPoint x="315" y="724" as="targetPoint" />
          </mxGeometry>
        </mxCell>
        <mxCell id="AJ422COEmqKwi6WhXJyT-26" style="rounded=0;orthogonalLoop=1;jettySize=auto;html=1;exitX=0.5;exitY=0.5;exitDx=0;exitDy=0;exitPerimeter=0;entryX=0;entryY=0.5;entryDx=0;entryDy=0;" edge="1" parent="1" source="AJ422COEmqKwi6WhXJyT-3" target="AJ422COEmqKwi6WhXJyT-24">
          <mxGeometry relative="1" as="geometry" />
        </mxCell>
        <mxCell id="AJ422COEmqKwi6WhXJyT-3" value="&amp;lt;&amp;lt;service&amp;gt;&amp;gt;&lt;br&gt;&lt;div&gt;LiftOperator&lt;/div&gt;" style="shape=umlActor;verticalLabelPosition=bottom;verticalAlign=top;html=1;outlineConnect=0;" vertex="1" parent="1">
          <mxGeometry x="180" y="670" width="30" height="60" as="geometry" />
        </mxCell>
        <mxCell id="AJ422COEmqKwi6WhXJyT-4" value="Ski Paradise WebApp" style="swimlane;whiteSpace=wrap;html=1;" vertex="1" parent="1">
          <mxGeometry x="290" y="200" width="160" height="370" as="geometry" />
        </mxCell>
        <mxCell id="AJ422COEmqKwi6WhXJyT-6" value="Get Weather Info" style="ellipse;whiteSpace=wrap;html=1;" vertex="1" parent="AJ422COEmqKwi6WhXJyT-4">
          <mxGeometry x="25" y="120" width="110" height="50" as="geometry" />
        </mxCell>
        <mxCell id="AJ422COEmqKwi6WhXJyT-7" value="Get Queue times" style="ellipse;whiteSpace=wrap;html=1;" vertex="1" parent="AJ422COEmqKwi6WhXJyT-4">
          <mxGeometry x="25" y="50" width="110" height="50" as="geometry" />
        </mxCell>
        <mxCell id="AJ422COEmqKwi6WhXJyT-5" value="Get Lift Status info" style="ellipse;whiteSpace=wrap;html=1;" vertex="1" parent="AJ422COEmqKwi6WhXJyT-4">
          <mxGeometry x="25" y="240" width="110" height="50" as="geometry" />
        </mxCell>
        <mxCell id="AJ422COEmqKwi6WhXJyT-17" value="Send operation instructions" style="ellipse;whiteSpace=wrap;html=1;" vertex="1" parent="AJ422COEmqKwi6WhXJyT-4">
          <mxGeometry x="25" y="310" width="110" height="50" as="geometry" />
        </mxCell>
        <mxCell id="AJ422COEmqKwi6WhXJyT-15" style="rounded=0;orthogonalLoop=1;jettySize=auto;html=1;exitX=0.5;exitY=0.5;exitDx=0;exitDy=0;exitPerimeter=0;entryX=1;entryY=0.5;entryDx=0;entryDy=0;" edge="1" parent="1" source="AJ422COEmqKwi6WhXJyT-8" target="AJ422COEmqKwi6WhXJyT-12">
          <mxGeometry relative="1" as="geometry" />
        </mxCell>
        <mxCell id="AJ422COEmqKwi6WhXJyT-21" style="rounded=0;orthogonalLoop=1;jettySize=auto;html=1;exitX=0.5;exitY=0.5;exitDx=0;exitDy=0;exitPerimeter=0;entryX=1;entryY=1;entryDx=0;entryDy=0;" edge="1" parent="1" source="AJ422COEmqKwi6WhXJyT-8" target="AJ422COEmqKwi6WhXJyT-17">
          <mxGeometry relative="1" as="geometry" />
        </mxCell>
        <mxCell id="AJ422COEmqKwi6WhXJyT-27" style="rounded=0;orthogonalLoop=1;jettySize=auto;html=1;exitX=0.5;exitY=0.5;exitDx=0;exitDy=0;exitPerimeter=0;" edge="1" parent="1" source="AJ422COEmqKwi6WhXJyT-8">
          <mxGeometry relative="1" as="geometry">
            <mxPoint x="420" y="665" as="targetPoint" />
          </mxGeometry>
        </mxCell>
        <mxCell id="AJ422COEmqKwi6WhXJyT-8" value="&amp;lt;&amp;lt;service&amp;gt;&amp;gt;&lt;br&gt;&lt;div&gt;CentralHub&lt;br&gt;&lt;/div&gt;" style="shape=umlActor;verticalLabelPosition=bottom;verticalAlign=top;html=1;outlineConnect=0;" vertex="1" parent="1">
          <mxGeometry x="520" y="670" width="30" height="60" as="geometry" />
        </mxCell>
        <mxCell id="AJ422COEmqKwi6WhXJyT-12" value="Report detected errors" style="ellipse;whiteSpace=wrap;html=1;" vertex="1" parent="1">
          <mxGeometry x="310" y="710" width="110" height="50" as="geometry" />
        </mxCell>
        <mxCell id="AJ422COEmqKwi6WhXJyT-22" style="rounded=0;orthogonalLoop=1;jettySize=auto;html=1;exitX=0.5;exitY=0.5;exitDx=0;exitDy=0;exitPerimeter=0;entryX=0;entryY=1;entryDx=0;entryDy=0;" edge="1" parent="1" source="AJ422COEmqKwi6WhXJyT-3" target="AJ422COEmqKwi6WhXJyT-17">
          <mxGeometry relative="1" as="geometry" />
        </mxCell>
        <mxCell id="AJ422COEmqKwi6WhXJyT-24" value="Lift Health Checks" style="ellipse;whiteSpace=wrap;html=1;" vertex="1" parent="1">
          <mxGeometry x="310" y="640" width="110" height="50" as="geometry" />
        </mxCell>
        <mxCell id="AJ422COEmqKwi6WhXJyT-39" value="Ski Lift Control system" style="swimlane;whiteSpace=wrap;html=1;" vertex="1" parent="1">
          <mxGeometry x="140" y="600" width="460" height="200" as="geometry" />
        </mxCell>
      </root>
    </mxGraphModel>
  </diagram>
</mxfile>
